<?xml version="1.0" standalone="no"?>
<!DOCTYPE svg PUBLIC "-//W3C//DTD SVG 20010904//EN"
 "http://www.w3.org/TR/2001/REC-SVG-20010904/DTD/svg10.dtd">
<svg version="1.0" xmlns="http://www.w3.org/2000/svg"
 width="700.000000pt" height="700.000000pt" viewBox="0 0 700.000000 700.000000"
 preserveAspectRatio="xMidYMid meet">
<metadata>
Created by potrace 1.14, written by Peter Selinger 2001-2017
</metadata>
<g transform="translate(0.000000,700.000000) scale(0.100000,-0.100000)"
fill="#000000" stroke="none">
<path d="M3549 6866 c-2 -2 -76 -7 -164 -10 -212 -8 -267 -13 -430 -41 -55 -9
-113 -19 -130 -21 -16 -2 -38 -7 -47 -10 -10 -3 -30 -8 -45 -11 -42 -8 -58
-11 -58 -13 0 -2 -5 -3 -55 -13 -39 -9 -148 -42 -215 -66 -33 -12 -67 -23 -75
-25 -21 -6 -105 -40 -165 -67 -27 -13 -59 -24 -70 -26 -10 -2 -22 -7 -25 -11
-4 -7 -35 -23 -50 -26 -23 -5 -248 -127 -307 -166 -22 -16 -51 -31 -62 -35
-12 -3 -21 -11 -21 -16 0 -5 -5 -9 -10 -9 -13 0 -265 -176 -306 -215 -7 -5
-38 -32 -70 -60 -48 -40 -151 -136 -218 -201 -6 -6 -47 -50 -91 -99 -44 -48
-85 -93 -90 -99 -6 -6 -36 -45 -67 -86 -32 -41 -61 -79 -66 -85 -4 -5 -28 -39
-52 -75 -25 -35 -52 -72 -60 -81 -8 -10 -24 -35 -35 -56 -11 -21 -22 -40 -25
-43 -15 -13 -188 -329 -189 -345 -1 -3 -8 -22 -17 -43 -47 -110 -124 -315
-128 -342 -2 -8 -12 -46 -24 -85 -11 -38 -28 -104 -37 -145 -9 -41 -19 -84
-21 -95 -16 -71 -31 -164 -39 -238 -4 -32 -8 -68 -11 -80 -4 -21 -15 -274 -16
-367 -1 -58 10 -259 17 -319 8 -62 35 -248 41 -275 3 -11 7 -34 9 -51 3 -16
15 -72 29 -122 13 -51 22 -93 19 -93 -3 0 -1 -6 5 -13 6 -7 13 -24 15 -37 2
-14 7 -32 10 -40 3 -8 14 -40 23 -70 20 -64 86 -235 117 -300 12 -25 21 -47
22 -50 1 -14 140 -270 162 -298 13 -17 22 -32 19 -32 -3 0 6 -17 19 -38 14
-20 31 -45 38 -56 6 -10 20 -29 29 -41 10 -13 18 -26 18 -29 0 -4 9 -16 20
-28 11 -12 20 -28 20 -37 0 -8 3 -12 6 -8 4 3 22 -17 42 -46 19 -29 38 -54 41
-57 3 -3 28 -32 56 -65 50 -61 100 -117 122 -140 7 -7 9 -16 5 -20 -4 -4 -2
-5 4 -3 6 2 40 -26 76 -62 83 -83 185 -178 229 -212 19 -14 45 -36 59 -48 14
-12 45 -36 70 -53 25 -17 47 -34 48 -39 2 -4 10 -8 18 -8 8 0 17 -6 20 -14 3
-8 13 -17 22 -20 21 -7 45 -22 93 -58 20 -16 39 -28 42 -28 3 0 38 -20 79 -43
70 -42 200 -107 338 -170 36 -16 77 -36 93 -44 15 -8 27 -11 27 -8 0 3 9 1 21
-6 19 -10 138 -56 164 -63 6 -2 17 -5 25 -8 13 -4 98 -30 149 -44 7 -2 63 -16
125 -30 99 -23 132 -29 186 -38 8 -2 29 -5 45 -9 36 -7 94 -16 150 -22 22 -3
56 -7 75 -9 202 -28 620 -22 840 10 19 3 50 7 69 9 19 3 58 9 86 15 28 6 65
13 81 16 16 3 58 12 94 20 36 9 72 17 80 19 8 2 15 4 15 5 0 1 9 3 20 5 33 6
107 27 155 43 25 8 52 16 60 17 17 2 16 2 155 57 55 22 125 51 155 66 30 14
57 26 60 27 7 1 179 89 222 113 18 11 59 34 91 51 31 18 57 37 57 43 0 5 5 6
10 3 6 -3 10 -1 10 5 0 6 4 9 9 6 5 -4 11 -3 13 2 1 4 48 39 103 77 225 155
480 391 655 605 25 30 53 63 63 75 10 11 54 72 97 135 44 63 84 120 90 127 11
14 55 87 107 178 19 33 64 121 99 195 36 74 70 143 75 152 5 10 9 25 9 33 0 8
4 15 10 15 5 0 9 3 8 8 -2 7 30 110 41 127 3 6 7 16 8 22 2 7 4 19 6 25 1 7 5
18 9 23 3 6 19 60 36 120 30 109 38 143 48 200 2 17 9 44 14 60 12 40 39 207
45 281 3 32 8 84 11 114 13 148 2 522 -20 642 -2 14 -8 52 -12 84 -8 62 -10
72 -14 77 -1 1 -3 11 -4 22 -2 11 -6 34 -10 50 -3 17 -8 39 -10 50 -2 11 -9
40 -16 65 -7 25 -14 52 -15 60 -13 59 -39 147 -46 156 -5 6 -6 14 -2 17 3 4 1
13 -5 20 -7 7 -13 22 -15 33 -4 17 -15 50 -34 94 -3 8 -7 17 -7 20 -1 3 -10
26 -20 50 -10 25 -28 67 -40 95 -12 27 -33 74 -48 104 -16 30 -28 61 -28 68 0
7 -4 13 -8 13 -5 0 -14 16 -22 35 -8 19 -17 35 -22 35 -4 0 -8 5 -8 10 0 9
-32 68 -73 135 -19 31 -143 216 -174 260 -15 22 -34 44 -40 48 -7 4 -13 12
-13 17 0 5 -20 31 -45 57 -24 26 -45 51 -45 54 0 3 -26 33 -57 66 -32 33 -79
82 -104 109 -64 68 -184 180 -249 234 -30 25 -61 51 -70 59 -88 83 -577 393
-640 406 -3 1 -36 16 -75 34 -58 27 -200 86 -290 121 -11 4 -33 13 -48 19 -15
6 -34 11 -42 11 -7 0 -26 5 -42 12 -15 6 -32 12 -38 13 -5 2 -46 12 -89 25
-43 12 -90 24 -104 26 -14 3 -29 7 -32 9 -4 2 -35 9 -71 14 -35 6 -75 13 -89
16 -107 22 -268 41 -439 50 -52 3 -97 8 -101 10 -4 3 -9 3 -11 1z m153 -330
c106 -6 174 -13 301 -32 23 -4 51 -8 62 -10 11 -1 20 -3 20 -4 0 -1 11 -3 25
-6 112 -20 492 -138 498 -155 2 -5 7 -7 12 -4 4 2 22 -2 39 -11 18 -9 37 -17
44 -18 20 -3 300 -143 339 -170 20 -13 39 -22 42 -18 3 3 6 0 6 -6 0 -7 7 -12
15 -12 8 0 15 -4 15 -10 0 -5 4 -10 9 -10 15 0 111 -62 111 -71 0 -5 4 -8 8
-7 11 4 220 -151 272 -201 22 -21 40 -36 40 -34 0 5 63 -53 158 -148 97 -97
172 -176 172 -184 0 -3 10 -16 23 -29 40 -43 118 -146 192 -256 28 -41 53 -76
58 -78 4 -2 7 -10 7 -17 0 -7 3 -15 8 -17 7 -3 29 -40 74 -128 13 -25 26 -47
31 -48 4 -2 5 -8 1 -13 -3 -5 0 -9 5 -9 6 0 10 -3 9 -7 -1 -5 17 -46 39 -93
59 -124 113 -261 143 -365 6 -22 14 -47 17 -55 3 -8 7 -20 8 -25 2 -6 12 -49
23 -95 12 -47 23 -96 26 -110 2 -14 7 -36 10 -50 4 -14 8 -38 10 -55 2 -16 6
-46 10 -65 27 -154 41 -587 22 -690 -4 -19 -9 -60 -12 -90 -3 -30 -7 -66 -10
-80 -2 -14 -9 -49 -14 -78 -5 -30 -12 -61 -14 -70 -6 -18 -16 -65 -21 -97 -2
-11 -4 -21 -4 -22 -1 -2 -2 -6 -2 -10 -1 -5 -5 -18 -10 -31 -5 -12 -11 -33
-13 -45 -10 -57 -85 -272 -125 -362 -10 -22 -22 -50 -25 -62 -4 -13 -12 -23
-18 -23 -6 0 -9 -3 -5 -6 13 -13 -182 -367 -233 -421 -11 -12 -20 -25 -20 -28
0 -9 -82 -119 -92 -123 -4 -2 -8 -8 -8 -14 0 -5 -6 -15 -12 -22 -7 -8 -31 -35
-53 -62 -113 -136 -388 -406 -427 -419 -10 -4 -18 -10 -18 -14 0 -4 -25 -25
-55 -47 -30 -21 -55 -43 -55 -47 0 -5 -4 -5 -10 -2 -5 3 -10 2 -10 -2 0 -5
-18 -19 -40 -33 -22 -14 -40 -28 -40 -33 0 -4 -4 -5 -10 -2 -5 3 -10 1 -10 -4
0 -6 -5 -11 -10 -11 -6 0 -16 -5 -23 -10 -29 -24 -103 -70 -114 -70 -7 0 -13
-3 -13 -8 0 -4 -21 -17 -47 -30 -27 -13 -66 -33 -88 -45 -61 -34 -310 -144
-345 -152 -8 -2 -32 -11 -52 -19 -21 -9 -39 -16 -40 -15 -2 0 -10 -2 -18 -5
-78 -25 -211 -61 -263 -72 -10 -2 -26 -6 -35 -8 -18 -6 -78 -16 -122 -21 -14
-1 -25 -3 -25 -4 0 -3 -22 -7 -85 -16 -30 -4 -68 -9 -85 -11 -138 -18 -463
-24 -645 -11 -111 9 -127 10 -230 27 -36 5 -81 12 -100 15 -19 3 -44 8 -55 10
-11 3 -49 11 -85 19 -359 78 -715 229 -1025 435 -38 25 -71 49 -73 54 -2 4
-10 7 -17 7 -7 0 -15 3 -17 8 -2 4 -32 29 -68 56 -36 27 -72 57 -81 65 -9 9
-33 30 -55 46 -60 47 -334 326 -334 340 0 4 -16 23 -35 43 -19 20 -35 40 -35
43 0 3 -12 19 -26 35 -38 43 -154 218 -209 314 -60 106 -165 315 -165 329 0 6
-9 26 -19 45 -11 19 -17 37 -14 40 3 3 1 12 -6 20 -6 8 -13 22 -16 32 -3 18
-29 97 -46 139 -4 11 -10 31 -13 45 -4 14 -17 68 -31 120 -24 95 -31 125 -41
190 -3 19 -7 42 -10 51 -2 9 -7 38 -9 65 -3 27 -7 59 -10 72 -25 129 -25 599
0 732 3 14 7 44 9 65 6 47 12 83 28 150 6 28 13 59 14 70 1 11 3 20 4 20 1 0
3 11 6 25 3 21 12 56 19 80 18 60 29 97 30 105 5 23 67 191 97 263 37 89 114
244 157 317 16 28 39 68 51 90 12 22 25 42 29 45 3 3 33 45 65 93 32 49 64 94
70 100 6 7 24 30 41 52 39 53 43 58 93 111 23 25 42 47 42 49 0 7 226 228 275
270 26 22 53 45 59 50 72 63 182 145 195 145 6 0 11 5 11 10 0 6 12 16 28 23
15 6 29 14 32 17 26 27 369 224 410 235 3 1 28 12 55 24 28 13 68 31 90 40 22
10 76 31 120 46 44 15 85 32 91 36 6 5 13 6 16 3 3 -2 23 2 44 10 43 17 312
85 357 91 16 2 40 6 55 9 84 16 123 20 291 30 58 4 106 7 107 9 4 3 198 -1
306 -7z"/>
<path d="M3237 6243 c-2 -1 -23 -4 -48 -7 -24 -2 -60 -7 -79 -10 -19 -3 -53
-8 -75 -12 -43 -6 -70 -12 -70 -14 0 -1 -11 -3 -25 -5 -14 -2 -54 -11 -90 -20
-36 -10 -69 -18 -75 -20 -5 -1 -17 -5 -25 -8 -8 -3 -44 -15 -80 -25 -76 -23
-138 -48 -233 -91 -37 -17 -72 -31 -77 -31 -6 0 -10 -3 -10 -7 0 -5 -10 -13
-23 -18 -82 -39 -236 -139 -322 -210 -44 -37 -220 -210 -255 -252 -8 -9 -37
-47 -63 -83 -26 -36 -54 -73 -62 -83 -8 -9 -15 -21 -15 -26 0 -5 -7 -17 -15
-25 -25 -25 -138 -250 -150 -301 -2 -5 -10 -33 -20 -61 -9 -28 -18 -60 -20
-70 -2 -10 -4 -20 -5 -21 -3 -4 -5 -11 -15 -68 -4 -27 -10 -57 -12 -65 -2 -8
-5 -36 -7 -61 -2 -25 -5 -50 -8 -55 -4 -8 -3 -269 1 -269 1 0 4 -20 5 -45 4
-48 11 -90 27 -155 5 -22 12 -51 15 -65 2 -14 8 -34 13 -45 5 -11 19 -47 32
-80 43 -114 108 -233 183 -335 14 -19 34 -46 43 -59 37 -49 197 -210 205 -205
4 3 8 1 8 -5 0 -11 121 -93 200 -135 129 -69 337 -137 470 -154 25 -3 297 -7
605 -9 531 -3 561 -4 600 -23 90 -44 114 -174 44 -246 -18 -19 -47 -38 -64
-43 -31 -8 -1185 -7 -1220 1 -11 3 -42 9 -68 12 -205 30 -459 127 -631 242
-32 21 -66 44 -74 49 -26 17 -65 49 -95 78 -16 15 -32 27 -36 27 -9 0 -179
180 -213 225 -12 17 -25 32 -29 35 -34 28 -179 279 -219 380 -12 30 -28 69
-35 85 -7 17 -16 39 -18 50 -3 11 -13 45 -22 75 -18 62 -27 107 -27 133 1 9
-2 17 -6 17 -4 0 -8 15 -8 33 -1 17 -5 50 -9 72 -9 50 -10 261 -1 340 16 147
28 215 46 270 16 49 20 75 11 75 -10 0 -91 -133 -91 -149 0 -6 -4 -11 -10 -11
-5 0 -10 -9 -10 -20 0 -11 -3 -20 -7 -20 -8 0 -42 -76 -44 -95 0 -5 -8 -18
-16 -28 -9 -9 -13 -20 -10 -24 4 -3 3 -11 -2 -17 -9 -12 -45 -132 -55 -186
-26 -132 -24 -349 3 -490 5 -25 7 -47 5 -49 -2 -2 0 -9 6 -16 5 -6 11 -26 13
-45 2 -19 9 -45 16 -57 6 -13 9 -23 7 -23 -11 0 69 -202 122 -309 76 -152 76
-151 84 -151 5 0 8 -5 8 -10 0 -11 34 -63 57 -88 7 -7 13 -20 13 -28 0 -8 4
-14 9 -14 4 0 20 -17 34 -38 56 -84 212 -242 332 -337 28 -22 53 -44 57 -50 4
-5 8 -6 8 -2 0 5 8 1 18 -9 20 -21 128 -90 192 -125 25 -13 47 -26 50 -29 5
-6 141 -69 205 -95 102 -42 265 -92 335 -101 14 -2 45 -8 70 -14 25 -7 81 -13
125 -16 64 -3 830 -5 1050 -2 80 1 126 -19 159 -69 25 -38 30 -61 28 -121 -2
-40 -76 -118 -113 -121 -13 -1 -287 -2 -609 -2 -539 -1 -630 2 -715 17 -16 3
-39 6 -50 8 -11 2 -20 4 -20 5 0 1 -13 4 -30 7 -37 5 -70 12 -70 14 0 1 -9 3
-20 5 -11 1 -42 10 -69 19 -26 10 -56 19 -66 21 -10 2 -37 12 -61 23 -24 11
-55 23 -69 27 -28 8 -147 61 -170 75 -8 5 -42 23 -75 41 -66 35 -227 141 -258
170 -11 10 -24 16 -29 13 -7 -4 38 -65 87 -119 6 -7 21 -27 35 -45 30 -40 202
-213 250 -253 19 -15 49 -39 65 -53 104 -87 327 -216 515 -297 36 -15 236 -83
274 -92 219 -54 320 -67 546 -69 274 -2 431 24 625 105 17 6 36 13 43 15 8 1
21 8 30 16 10 7 39 24 65 38 27 14 56 32 65 40 9 9 27 23 40 31 49 35 140 128
193 199 78 105 160 298 177 414 9 65 8 290 -1 336 -17 82 -31 137 -44 167 -7
18 -14 36 -14 40 -2 16 -72 138 -112 197 -36 54 -149 174 -203 216 -39 31
-110 76 -159 100 -27 14 -51 28 -53 33 -2 4 -10 7 -18 7 -8 0 -22 4 -32 9 -26
14 -192 61 -267 76 -30 6 -37 7 -110 20 -22 4 -43 9 -47 12 -5 2 -17 6 -28 9
-11 2 -28 6 -37 8 -38 9 -133 48 -139 57 -3 5 -10 7 -15 4 -5 -4 -9 -1 -9 4 0
6 -6 11 -13 11 -17 0 -143 85 -191 129 -63 58 -156 157 -156 166 0 6 -41 67
-51 75 -4 3 -21 32 -39 65 -18 33 -37 66 -42 73 -6 6 -7 12 -3 12 4 0 3 6 -3
13 -20 24 -70 177 -78 240 -2 16 -6 32 -9 37 -17 27 -24 260 -11 365 27 224
136 471 291 659 79 98 194 203 285 263 30 20 57 39 60 42 32 36 325 163 444
192 23 5 48 11 56 13 26 6 173 28 220 33 131 12 375 2 470 -20 14 -3 54 -11
90 -18 91 -19 129 -28 145 -37 5 -4 16 -7 25 -8 22 -2 133 -45 145 -55 13 -12
52 -12 40 0 -13 13 -146 88 -215 121 -70 34 -216 95 -252 105 -5 2 -9 3 -10 5
-2 1 -10 3 -18 5 -8 2 -57 15 -108 30 -153 43 -279 67 -477 92 -43 6 -503 11
-508 6z"/>
<path d="M4687 5303 c-3 -2 -20 -6 -38 -8 -42 -5 -57 -9 -92 -23 -16 -7 -33
-12 -38 -12 -5 0 -9 -4 -9 -10 0 -5 -6 -10 -13 -10 -7 0 -24 -11 -39 -24 -14
-14 -29 -22 -32 -19 -3 4 -6 1 -6 -6 0 -6 -11 -22 -24 -34 -34 -32 -82 -124
-96 -185 -21 -89 -9 -199 29 -273 35 -71 93 -137 151 -174 88 -56 233 -85 319
-63 20 5 44 10 54 13 40 9 112 52 164 97 30 27 51 48 46 48 -4 0 -3 4 3 8 20
14 62 97 77 152 14 57 15 139 2 188 -5 15 -9 32 -10 37 -7 31 -53 114 -77 137
-16 15 -28 31 -28 35 0 13 -101 78 -148 97 -24 9 -58 19 -75 21 -59 9 -116 13
-120 8z"/>
<path d="M6014 4835 c3 -11 10 -49 16 -85 5 -36 12 -75 15 -88 2 -13 7 -50 10
-83 4 -33 8 -69 10 -80 6 -28 17 -246 16 -289 -1 -19 -3 -87 -5 -150 -4 -116
-9 -166 -27 -275 -6 -33 -13 -76 -16 -95 -3 -19 -16 -75 -29 -125 -14 -49 -27
-99 -29 -109 -34 -148 -161 -443 -296 -686 -39 -70 -181 -284 -191 -288 -4 -2
-8 -8 -8 -13 0 -5 -7 -17 -15 -26 -8 -10 -37 -47 -65 -83 -285 -364 -606 -646
-975 -857 -98 -55 -320 -158 -385 -178 -14 -4 -38 -13 -55 -20 -37 -17 -241
-73 -293 -81 -20 -3 -40 -8 -45 -11 -8 -5 -20 -7 -100 -18 -27 -4 -59 -8 -70
-11 -132 -25 -510 -24 -674 2 -122 19 -369 80 -468 114 -82 29 -306 133 -380
177 -50 30 -201 129 -221 146 -10 9 -57 46 -104 83 -77 62 -311 288 -385 374
-94 107 -234 292 -376 494 -72 104 -85 115 -45 37 13 -25 56 -113 97 -196 274
-566 651 -1014 1104 -1313 205 -135 614 -307 829 -348 12 -2 32 -6 46 -9 40
-9 52 -11 180 -30 8 -1 49 -6 90 -10 41 -4 89 -9 105 -11 41 -5 337 -4 405 1
78 6 162 14 185 19 11 2 42 7 69 10 28 4 80 14 118 21 37 8 82 17 100 21 95
17 294 81 425 135 138 58 422 217 481 269 9 8 44 35 77 59 143 106 363 317
491 472 168 205 318 452 444 734 84 187 186 549 205 730 3 33 10 89 14 125 9
66 6 484 -3 530 -2 14 -10 68 -16 120 -9 76 -33 212 -55 320 -28 134 -98 363
-148 480 -38 89 -67 141 -53 95z"/>
</g>
</svg>
